<svg width="42" height="42" viewBox="0 0 42 42" fill="none" xmlns="http://www.w3.org/2000/svg">
<path d="M6.17214 21.6508C6.08315 21.1795 5.62757 20.8672 5.15801 20.9596C4.68675 21.0486 4.37739 21.5029 4.46681 21.9737C4.92153 24.3736 5.9238 26.6858 7.36511 28.6611C7.64704 29.0478 8.1902 29.1336 8.57758 28.8506C8.96493 28.5683 9.04968 28.0254 8.76702 27.6381C7.47657 25.8696 6.5794 23.799 6.17214 21.6508Z" fill="#003900"/>
<path d="M36.4092 20.9595C35.9342 20.8672 35.4837 21.1799 35.3947 21.6503C34.6242 25.7107 32.1667 29.2964 28.6517 31.4882C28.2453 31.7421 28.1212 32.2773 28.3746 32.6842C28.6273 33.0894 29.1628 33.2154 29.5705 32.9613C33.4953 30.5139 36.2397 26.5091 37.1 21.9741C37.1894 21.5033 36.8801 21.049 36.4092 20.9595Z" fill="#003900"/>
<path d="M1.42071 13.9777C0.983672 14.3749 0.70397 14.942 0.70397 15.5777V18.876C0.70397 25.7137 4.17652 32.0298 9.85622 35.7121C9.84186 35.726 9.82539 35.7368 9.81124 35.751C9.21624 36.346 8.88865 37.1342 8.88865 37.9704C8.88865 39.7028 10.2982 41.1119 12.0306 41.1119H29.3196C31.0132 41.1119 32.4616 39.7468 32.4616 37.9704C32.4616 37.1372 32.1255 36.369 31.5768 35.7976C37.3382 32.1253 40.8629 25.769 40.8629 18.876V15.5777C40.8629 14.3813 39.8894 13.4078 38.693 13.4078H36.1464L38.9648 8.48668C39.9655 8.45795 40.7809 7.95375 41.2697 7.20481C42.1272 5.88876 41.7569 4.13031 40.4412 3.27161L36.13 0.4606C34.8162 -0.395882 33.0532 -0.0229458 32.1963 1.28911C31.7002 2.05048 31.5811 3.01067 31.9514 3.91905L24.9624 13.4078H24.5858C26.3997 10.1793 25.6179 5.68707 24.1634 2.77238C23.9769 2.39987 23.5535 2.21298 23.1497 2.32571C22.9629 2.37879 19.0762 3.51179 16.6204 6.38875C15.2599 3.69953 13.0917 1.88941 12.9842 1.80105C12.6638 1.53745 12.2014 1.53788 11.8802 1.80232C11.7881 1.87829 9.89754 3.45924 8.54019 5.86299C6.08829 3.37093 2.66803 2.36888 2.50551 2.32232C2.10248 2.20704 1.67742 2.39563 1.49095 2.76899C1.37907 2.99318 -1.23233 8.31176 0.726007 12.72C0.910144 13.1518 1.14402 13.5677 1.42071 13.9777ZM29.3196 39.3761H12.0306C11.2551 39.3761 10.6245 38.7455 10.6245 37.9704C10.6245 37.2086 11.2483 36.5642 12.0306 36.5642H29.3196C30.0989 36.5642 30.7258 37.198 30.7258 37.9704C30.7258 38.729 30.1114 39.3761 29.3196 39.3761ZM29.7693 34.8606C29.7643 34.8598 29.7591 34.8602 29.7541 34.8595C29.6109 34.8396 29.4659 34.8284 29.3196 34.8284H12.0306C11.9395 34.8284 11.8488 34.833 11.7577 34.8411C6.25479 31.7326 2.76487 26.0258 2.46885 19.7418H39.0979C38.8014 26.0407 35.2971 31.7526 29.7693 34.8606ZM39.127 15.5777V18.006H2.43982V15.5777C2.43982 15.3546 2.61092 15.1772 2.82764 15.153C2.91505 15.153 37.1322 15.1467 38.693 15.1437C38.9325 15.1437 39.127 15.3382 39.127 15.5777ZM33.6512 2.23756C33.9819 1.72926 34.6658 1.57847 35.1815 1.91505L39.4927 4.72606C40.0038 5.05916 40.1483 5.7457 39.8152 6.25637C39.4866 6.76142 38.8039 6.9177 38.2851 6.57914L33.9733 3.76792C33.4603 3.43429 33.3175 2.74772 33.6512 2.23756ZM33.1078 5.2763L37.2546 7.97998L34.1461 13.4078H27.1186L33.1078 5.2763ZM22.9115 4.24209C24.1222 7.28842 24.5285 10.8127 22.5069 13.4078H20.3358L21.5392 9.40429C21.6774 8.9449 21.4172 8.46093 20.9582 8.3232C20.4976 8.18547 20.0144 8.44525 19.8771 8.90422L18.5234 13.4078H16.3913C16.2204 11.9584 16.2723 10.5348 16.8653 9.19451C17.9367 6.81144 20.4777 5.16888 22.9115 4.24209ZM12.4341 3.6509C13.2367 4.43746 14.7111 6.06821 15.4778 8.07698C14.645 9.64768 14.4393 11.6254 14.6246 13.4078H11.0318C11.1601 12.1731 11.1051 10.8711 10.7808 9.65756C10.5333 8.72893 10.2246 8.07838 9.73072 7.32475C10.5347 5.66221 11.7378 4.3366 12.4341 3.6509ZM2.7441 4.23997C5.71027 5.37391 8.57484 7.41532 9.19701 10.5585C9.3967 11.568 9.3888 12.3598 9.26514 13.4078H7.13087L5.77675 8.90422C5.63902 8.44525 5.15505 8.18547 4.69566 8.3232C4.23669 8.46093 3.97649 8.94533 4.11464 9.40429L5.31837 13.4078H3.14617C2.79294 12.9561 2.52066 12.5036 2.31777 12.0276C1.05953 9.19494 2.16563 5.7029 2.7441 4.23997Z" fill="#003900"/>
</svg>
