<svg width="47" height="51" viewBox="0 0 47 51" fill="none" xmlns="http://www.w3.org/2000/svg">
<path d="M46.2874 8.38813C46.0634 6.98113 44.8314 5.93113 43.4104 5.93113C43.4034 5.93113 43.3894 5.93113 43.3824 5.93113C34.5484 6.02213 26.0294 9.17213 19.2604 14.8141C19.0504 12.3361 18.3434 9.92113 17.1744 7.70913C15.5784 4.69213 13.1774 2.17213 10.2444 0.422134C9.06135 -0.284866 7.58435 -0.088867 6.66035 0.898133C2.26435 5.58113 -0.101649 11.6991 0.00335056 18.1251C0.101351 24.3131 2.48135 30.1371 6.72335 34.6101C6.32435 36.1361 6.02335 37.6901 5.82035 39.2721C5.73635 39.9231 6.19135 40.5181 6.84935 40.6091C6.89835 40.6161 6.95435 40.6161 7.00335 40.6161C7.59135 40.6161 8.10235 40.1821 8.17935 39.5801C8.39635 37.9351 8.71835 36.3251 9.15235 34.7641C9.20135 34.6591 9.22935 34.5541 9.24335 34.4421C13.5344 19.3991 27.4084 8.47913 43.4244 8.31113C43.4244 8.31113 43.4244 8.31113 43.4314 8.31113C43.6834 8.31113 43.9214 8.51413 43.9634 8.75913C44.8454 14.3241 44.8734 19.9661 44.0474 25.5381C44.0334 25.5801 44.0194 25.6221 44.0124 25.6641C42.3674 32.7271 37.7754 38.7611 31.3984 42.2121C25.7774 45.2641 19.2324 46.0621 13.0934 44.5151C15.1654 43.1501 17.1534 41.6521 19.0504 40.0211C24.0554 35.7161 28.2624 30.6271 31.5524 24.9081C31.8814 24.3411 31.6854 23.6131 31.1114 23.2841C30.5444 22.9551 29.8164 23.1511 29.4874 23.7251C24.6854 32.0201 17.8184 38.9501 9.65635 43.8361C9.62135 43.8501 9.59335 43.8711 9.55835 43.8921C6.94035 45.4531 4.19635 46.7971 1.34035 47.9171C0.731351 48.1551 0.423351 48.8481 0.668351 49.4571C0.850351 49.9261 1.29835 50.2131 1.77435 50.2131C1.92135 50.2131 2.06835 50.1851 2.20835 50.1291C5.03635 49.0231 7.75235 47.7071 10.3564 46.1881C13.2544 47.1681 16.2644 47.6581 19.2674 47.6581C23.8454 47.6581 28.4024 46.5311 32.5044 44.2981C39.4064 40.5601 44.4044 34.0501 46.2454 26.4271C46.2874 26.3291 46.3224 26.2241 46.3364 26.1121C47.2394 20.2321 47.2184 14.2681 46.2874 8.38813ZM11.9524 22.9201C11.9384 21.6461 11.8824 20.4631 11.7844 19.3291C11.5674 16.9071 11.1544 14.3591 10.5244 11.5241C10.3844 10.8801 9.74735 10.4811 9.10335 10.6211C8.45935 10.7611 8.06035 11.3981 8.20035 12.0421C8.80935 14.7721 9.20835 17.2221 9.41135 19.5391C9.60735 21.7581 9.62835 24.2011 9.46735 27.2041C8.71135 28.7301 8.05335 30.3051 7.50735 31.9291C0.339351 23.3751 0.584351 10.8241 8.38235 2.52213C8.53635 2.35413 8.80235 2.33313 9.01935 2.45913C14.1224 5.49713 17.1254 10.9991 16.9364 16.9071C15.0604 18.7481 13.3944 20.7641 11.9524 22.9201Z" fill="white"/>
</svg>
